<svg width="94" height="70" viewBox="0 0 94 70" fill="none" xmlns="http://www.w3.org/2000/svg">
<g id="Icon/Big/Pet">
<g id="Group 17">
<path id="Combined Shape" fill-rule="evenodd" clip-rule="evenodd" d="M26.7273 11.4539C26.4919 11.4539 26.2564 11.3669 26.0722 11.1928C25.6924 10.8324 25.6782 10.2336 26.0399 9.85621C31.5337 4.10959 38.9445 0.94635 46.907 0.94635C54.6045 0.94635 61.8406 3.93176 67.2831 9.35392C67.6544 9.72378 67.6544 10.3226 67.2831 10.6915C66.9128 11.0613 66.3118 11.0613 65.9405 10.6915C60.8569 5.62689 54.0975 2.83824 46.907 2.83824C39.4696 2.83824 32.5468 5.79432 27.4148 11.1597C27.2277 11.3555 26.978 11.4539 26.7273 11.4539ZM19.9534 9.90843C19.7074 9.90843 19.4273 9.97843 19.1596 10.2036C15.1186 13.6004 10.8867 23.0929 6.79438 32.2723L6.79437 32.2724L6.79432 32.2725C6.14011 33.7406 5.48971 35.1992 4.84595 36.6191C1.83985 43.2502 1.14007 48.2836 2.70579 52.0068C4.563 56.4215 9.43106 58.5196 14.2583 60.2905C15.9313 60.9034 17.7306 60.6717 19.1966 59.6529C20.6731 58.6275 21.52 57.0109 21.52 55.2192V11.4901C21.52 10.7513 21.0083 10.2509 20.5696 10.0484C20.4462 9.99167 20.2202 9.90843 19.9534 9.90843ZM16.1364 62.521C15.2885 62.521 14.434 62.3706 13.6022 62.066C8.61165 60.2346 3.10648 57.8537 0.954922 52.7371C-0.826331 48.504 -0.119907 42.9768 3.11502 35.8415C3.75688 34.4236 4.40539 32.9696 5.05864 31.5044C9.23832 22.1291 13.5604 12.436 17.9347 8.75722C18.888 7.95694 20.2031 7.7933 21.37 8.33249C22.6148 8.90857 23.419 10.1478 23.419 11.4901V55.2192C23.419 57.603 22.2464 59.8402 20.2828 61.2052C19.0295 62.0755 17.5948 62.521 16.1364 62.521ZM73.3861 9.90843C73.1193 9.90843 72.8933 9.99167 72.7699 10.0484C72.3312 10.2509 71.8194 10.7513 71.8194 11.4901V55.2192C71.8194 57.0109 72.6664 58.6275 74.1428 59.6529C75.6089 60.6717 77.4091 60.9034 79.0812 60.2905C83.9084 58.5196 88.7765 56.4215 90.6337 52.0068C92.1994 48.2836 91.4996 43.2502 88.4945 36.6191C87.8498 35.1992 87.1993 33.7406 86.5452 32.2725L86.5451 32.2724C82.4528 23.093 78.2209 13.6004 74.1799 10.2036C73.9121 9.97843 73.632 9.90843 73.3861 9.90843ZM77.2031 62.521C75.7446 62.521 74.3109 62.0755 73.0566 61.2052C71.0931 59.8402 69.9204 57.603 69.9204 55.2192V11.4901C69.9204 10.1478 70.7247 8.90857 71.9695 8.33249C73.1345 7.7933 74.4505 7.95694 75.4047 8.75722C79.779 12.436 84.1012 22.1291 88.2808 31.5044C88.9341 32.9696 89.5826 34.4236 90.2244 35.8415C93.4594 42.9768 94.1658 48.504 92.3845 52.7371C90.233 57.8537 84.7278 60.2346 79.7373 62.066C78.9055 62.3706 78.05 62.521 77.2031 62.521ZM46.6702 53.7648C50.3153 53.7648 53.2701 51.802 53.2701 49.3813C53.2701 46.9597 50.3153 44.9969 46.6702 44.9969C43.0241 44.9969 40.0702 46.9597 40.0702 49.3813C40.0702 51.802 43.0241 53.7648 46.6702 53.7648ZM34.9362 34.7691C34.9362 35.979 33.9516 36.9599 32.7362 36.9599C31.5209 36.9599 30.5362 35.979 30.5362 34.7691C30.5362 33.5583 31.5209 32.5774 32.7362 32.5774C33.9516 32.5774 34.9362 33.5583 34.9362 34.7691ZM60.6035 36.9599C61.8179 36.9599 62.8035 35.979 62.8035 34.7691C62.8035 33.5583 61.8179 32.5774 60.6035 32.5774C59.3882 32.5774 58.4035 33.5583 58.4035 34.7691C58.4035 35.979 59.3882 36.9599 60.6035 36.9599ZM26.0564 61.4927C31.4989 66.9158 38.736 69.9021 46.4326 69.9021C54.3951 69.9021 61.8059 66.7379 67.2997 60.9923C67.6614 60.6148 67.6472 60.016 67.2674 59.6556C66.8876 59.2952 66.2875 59.3085 65.9248 59.6878C60.7928 65.0541 53.87 68.0102 46.4326 68.0102C39.243 68.0102 32.4836 65.2206 27.399 60.1551C27.0278 59.7862 26.4267 59.7862 26.0564 60.1551C25.6852 60.525 25.6852 61.1237 26.0564 61.4927Z" fill="#6E6E6E"/>
</g>
</g>
</svg>
